<svg id="Layer_1" data-name="Layer 1" xmlns="http://www.w3.org/2000/svg" viewBox="0 0 70 69.11"><defs><style>.cls-1{fill:url(#linear-gradient)}.cls-2{fill:#010101;opacity:.2;isolation:isolate}.cls-3{fill:#fff}.cls-4{fill:#1e3160}.cls-5{fill:#e9ecee}</style><linearGradient id="linear-gradient" x1="35" y1=".41" x2="35" y2="68.7" gradientUnits="userSpaceOnUse"><stop offset="0" stop-color="#f9c144"/><stop offset=".28" stop-color="#f7bd45"/><stop offset=".56" stop-color="#f2b147"/><stop offset=".81" stop-color="#eb9f4b"/></linearGradient></defs><title>Compass_logo</title><circle class="cls-1" cx="35" cy="34.56" r="34.14"/><g id="compass-logo"><g id="Compass-Logo-2" data-name="Compass-Logo"><g id="Imported-Layers"><path id="Fill-1" class="cls-2" d="M605.88 407.48l-9.11 4.7a22.36 22.36 0 0 0 12.23 5.61l-3.08-10.31m11.69 0l-3.16 10.38a22.36 22.36 0 0 0 12.16-5.33l-9-5m16.39-8.71l-10.57 3 4.8 9.08a21.84 21.84 0 0 0 5.77-12.08m-5.42-17.49l-5 9.16 10.42 3.09a21.81 21.81 0 0 0-5.48-12.25m1.32-2.82a.31.31 0 0 1 0 .35l-1.11 2a22.27 22.27 0 0 1 5.73 12.82l7.23 2.14a.39.39 0 0 1 0 .74l-7.27 2.08a22.29 22.29 0 0 1-6 12.67l1.13 2.14a.33.33 0 0 1-.29.48.33.33 0 0 1-.16 0l-2.1-1.2a22.83 22.83 0 0 1-12.72 5.57l-2.28 7.31a.39.39 0 0 1-.75 0l-2.19-7.34a22.83 22.83 0 0 1-12.76-5.86l-2.3 1.17a.33.33 0 0 1-.15 0 .32.32 0 0 1-.13 0c1.36 1 16.8 12.06 17.17 12.24l4.36 3.13a33.69 33.69 0 0 0 20.34-9.55 32.88 32.88 0 0 0 9.85-23.48 32.91 32.91 0 0 0-.81-7.29l-14.78-10.13" transform="translate(-576.85 -361.38)"/><path id="Fill-2" class="cls-3" d="M646.16 395.93h-.69a32.88 32.88 0 0 1-9.85 23.48 33.93 33.93 0 0 1-47.56 0 32.9 32.9 0 0 1 0-47 33.93 33.93 0 0 1 47.56 0 32.88 32.88 0 0 1 9.85 23.48h1.37a34.23 34.23 0 0 0-10.24-24.39 35.32 35.32 0 0 0-49.5 0 34.25 34.25 0 0 0 0 48.87 35.32 35.32 0 0 0 49.5 0 34.23 34.23 0 0 0 10.25-24.43h-.69" transform="translate(-576.85 -361.38)"/><path id="Fill-3" class="cls-3" d="M634.4 395.93h-.23a21.83 21.83 0 0 1-6.54 15.58 22.52 22.52 0 0 1-31.57 0 21.84 21.84 0 0 1 0-31.16 22.52 22.52 0 0 1 31.57 0 21.83 21.83 0 0 1 6.54 15.58h.46a22.78 22.78 0 1 0-22.78 22.49 22.63 22.63 0 0 0 22.78-22.49h-.23" transform="translate(-576.85 -361.38)"/><path id="Combined-Shape" class="cls-4" d="M623.41 401.85l6.16 11.64a.33.33 0 0 1-.45.43l-11.54-6.47-5.58 18.16a.39.39 0 0 1-.75 0l-5.41-18.12-11.84 6.09a.33.33 0 0 1-.44-.45l6.57-11.43-18.41-5.26a.39.39 0 0 1 0-.74l18.68-5.54-6.5-11.64a.33.33 0 0 1 .44-.44l11.67 6.2 5.24-17.88a.39.39 0 0 1 .75 0l5.52 18.49 11.89-6.47a.33.33 0 0 1 .45.44l-6.33 11.63 18.17 5.37a.39.39 0 0 1 0 .74z" transform="translate(-576.85 -361.38)"/><path class="cls-5" d="M28.86 41.8l.03.12 5.54 19.21V36.97l-5.57 4.83z"/><path id="Fill-10" class="cls-5" d="M611.74 369.32V387l5.56 1.64zm0 17.66v6.5l5.57-4.83z" transform="translate(-576.85 -361.38)"/><path id="Fill-12" class="cls-5" d="M27.92 29.35l-19.58 5.5h24.47l-4.89-5.5"/><path id="Fill-13" class="cls-5" d="M61.35 34.85H36.88l4.89 5.5 19.58-5.5"/><path id="Fill-14" class="cls-5" d="M20.38 19.32l7.67 7.57.3-1.05.04-2.11-8.01-4.41"/><path id="Fill-15" class="cls-5" d="M28.35 25.84l-.3 1.05.28.28.02-1.33"/><path id="Fill-16" class="cls-5" d="M618.66 403.87l-.75 2.45 7.3 4zm-.52-.51l-.9.26v2.32l.71.39.75-2.45zm-.87-.86v1.12l.9-.26z" transform="translate(-576.85 -361.38)"/><path id="Fill-19" class="cls-5" d="M626.95 382.42l-7.06 7 2.68.79zm-7.06 7l-.89.88 3.48.07.08-.15z" transform="translate(-576.85 -361.38)"/><path id="Fill-21" class="cls-5" d="M601 402l-4.47 7.91 7.26-7.17-2.58-.74H601zm.22 0l2.58.74.68-.68z" transform="translate(-576.85 -361.38)"/></g></g></g></svg>